<?xml version="1.0" encoding="UTF-8"?>
<svg width="29px" height="32px" viewBox="0 0 29 32" version="1.1" xmlns="http://www.w3.org/2000/svg" xmlns:xlink="http://www.w3.org/1999/xlink">
    <defs></defs>
    <g id="Page-1" stroke="none" stroke-width="1" fill="none" fill-rule="evenodd" fill-opacity="0.749">
        <g id="G20_-_Digital_Society_Platform" transform="translate(-305.000000, -473.000000)" fill="#873299">
            <g id="Group-51">
                <path d="M308.3271,486.628 C308.3271,486.628 308.3271,497.126 308.3271,497.126 C308.3271,497.126 312.8282,497.126 312.8282,497.126 C312.8282,497.126 312.8282,486.628 312.8282,486.628 C312.8282,486.628 308.3271,486.628 308.3271,486.628 M317.3294,486.628 C317.3294,486.628 317.3294,497.126 317.3294,497.126 C317.3294,497.126 321.8305,497.126 321.8305,497.126 C321.8305,497.126 321.8305,486.628 321.8305,486.628 C321.8305,486.628 317.3294,486.628 317.3294,486.628 M305.3264,504.6238 C305.3264,504.6238 333.8335,504.6238 333.8335,504.6238 C333.8335,504.6238 333.8335,500.1249 333.8335,500.1249 C333.8335,500.1249 305.3264,500.1249 305.3264,500.1249 C305.3264,500.1249 305.3264,504.6238 305.3264,504.6238 M326.3316,486.628 C326.3316,486.628 326.3316,497.126 326.3316,497.126 C326.3316,497.126 330.8327,497.126 330.8327,497.126 C330.8327,497.126 330.8327,486.628 330.8327,486.628 C330.8327,486.628 326.3316,486.628 326.3316,486.628 M319.5799,473.132 C319.5799,473.132 305.3264,480.63 305.3264,480.63 C305.3264,480.63 305.3264,483.629 305.3264,483.629 C305.3264,483.629 333.8335,483.629 333.8335,483.629 C333.8335,483.629 333.8335,480.63 333.8335,480.63 C333.8335,480.63 319.5799,473.132 319.5799,473.132" id="Fill-47"></path>
            </g>
        </g>
    </g>
</svg>
