<svg width="32px" height="32px" viewBox="0 0 32 32" version="1.1" xmlns="http://www.w3.org/2000/svg" xmlns:xlink="http://www.w3.org/1999/xlink">
    <defs></defs>
    <g id="Page-1" stroke="none" stroke-width="1" fill="none" fill-rule="evenodd" fill-opacity="0.749">
        <g id="G20_-_Digital_Society_Platform" transform="translate(-824.000000, -473.000000)" fill="#F7A13E">
            <g id="Group-83" transform="translate(812.000000, 473.000000)">
                <path d="M40.3401,0.132 C40.3401,0.132 15.834,0.132 15.834,0.132 C13.9085,0.132 12.3331,1.706 12.3331,3.631 C12.3331,3.631 12.3331,28.1247 12.3331,28.1247 C12.3331,30.0492 13.9085,31.6238 15.834,31.6238 C15.834,31.6238 40.3401,31.6238 40.3401,31.6238 C42.2656,31.6238 43.841,30.0492 43.841,28.1247 C43.841,28.1247 43.841,3.631 43.841,3.631 C43.841,1.706 42.2656,0.132 40.3401,0.132 M22.8358,24.626 C22.8358,24.626 19.3349,24.626 19.3349,24.626 C19.3349,24.626 19.3349,12.379 19.3349,12.379 C19.3349,12.379 22.8358,12.379 22.8358,12.379 C22.8358,12.379 22.8358,24.626 22.8358,24.626 M29.8375,24.626 C29.8375,24.626 26.3366,24.626 26.3366,24.626 C26.3366,24.626 26.3366,7.13 26.3366,7.13 C26.3366,7.13 29.8375,7.13 29.8375,7.13 C29.8375,7.13 29.8375,24.626 29.8375,24.626 M36.8393,24.626 C36.8393,24.626 33.3384,24.626 33.3384,24.626 C33.3384,24.626 33.3384,17.627 33.3384,17.627 C33.3384,17.627 36.8393,17.627 36.8393,17.627 C36.8393,17.627 36.8393,24.626 36.8393,24.626" id="Fill-82"></path>
            </g>
        </g>
    </g>
</svg>
