<svg width="22px" height="32px" viewBox="0 0 22 32" version="1.1" xmlns="http://www.w3.org/2000/svg" xmlns:xlink="http://www.w3.org/1999/xlink">
    <defs></defs>
    <g id="Page-1" stroke="none" stroke-width="1" fill="none" fill-rule="evenodd" fill-opacity="0.749">
        <g id="G20_-_Digital_Society_Platform" transform="translate(-569.000000, -473.000000)" fill="#01BABD">
            <g id="Group-51">
                <path d="M584.2708,482.313 C584.2708,482.497 584.2044,482.655 584.0716,482.787 C583.9388,482.92 583.7856,482.981 583.612,482.971 C583.4383,482.961 583.2851,482.9 583.1523,482.787 C583.0195,482.675 582.9532,482.517 582.9532,482.313 C582.9532,481.691 582.5854,481.206 581.85,480.859 C581.1146,480.512 580.3894,480.344 579.6745,480.354 C579.4906,480.354 579.3374,480.288 579.2148,480.155 C579.0923,480.023 579.0259,479.87 579.0157,479.696 C579.0055,479.523 579.0718,479.37 579.2148,479.237 C579.3578,479.105 579.511,479.038 579.6745,479.038 C580.3588,479.038 581.038,479.151 581.7122,479.375 C582.3863,479.599 582.9787,479.967 583.4894,480.477 C584.0001,480.987 584.2605,481.599 584.2708,482.313 M587.5494,482.313 C587.5494,481.334 587.3145,480.421 586.8447,479.574 C586.3748,478.727 585.7569,478.034 584.9908,477.493 C584.2248,476.952 583.3872,476.529 582.4782,476.223 C581.5692,475.917 580.6346,475.764 579.6745,475.764 C578.7144,475.764 577.7798,475.917 576.8707,476.223 C575.9617,476.529 575.119,476.952 574.3428,477.493 C573.5665,478.034 572.9537,478.727 572.5043,479.574 C572.0549,480.421 571.8148,481.334 571.7842,482.313 C571.7842,483.7 572.254,484.93 573.1937,486.001 C573.3265,486.154 573.5308,486.383 573.8066,486.69 C574.0823,486.996 574.2917,487.22 574.4347,487.363 C576.1915,489.454 577.1567,491.489 577.3304,493.468 C577.3304,493.468 582.0033,493.468 582.0033,493.468 C582.1871,491.489 583.1523,489.454 584.8989,487.363 C585.0419,487.21 585.2513,486.985 585.5271,486.69 C585.8028,486.394 586.0122,486.164 586.1552,486.001 C587.0847,484.93 587.5494,483.7 587.5494,482.313 M590.1693,482.313 C590.1693,484.435 589.4645,486.266 588.055,487.807 C587.4422,488.48 586.9366,489.077 586.5382,489.597 C586.1399,490.117 585.7313,490.77 585.3126,491.556 C584.8938,492.341 584.6589,493.076 584.6078,493.759 C585.2513,494.137 585.573,494.698 585.573,495.442 C585.573,495.942 585.4045,496.376 585.0674,496.743 C585.4045,497.11 585.573,497.549 585.573,498.059 C585.573,498.773 585.2666,499.324 584.6538,499.712 C584.8376,500.028 584.9296,500.3494 584.9296,500.6758 C584.9296,501.3083 584.71,501.798 584.2708,502.1448 C583.8316,502.4917 583.3055,502.66 582.6927,502.6498 C582.4169,503.2517 582.0033,503.7312 581.4517,504.0882 C580.9001,504.4453 580.3077,504.6238 579.6745,504.6238 C579.0412,504.6238 578.4437,504.4453 577.8819,504.0882 C577.3202,503.7312 576.9116,503.2517 576.6562,502.6498 C576.023,502.6498 575.4919,502.4815 575.0629,502.1448 C574.6339,501.8082 574.4194,501.3185 574.4194,500.6758 C574.4194,500.3494 574.5062,500.028 574.6798,499.712 C574.067,499.324 573.7606,498.773 573.7606,498.059 C573.7606,497.549 573.9291,497.11 574.2662,496.743 C573.9291,496.376 573.7606,495.942 573.7606,495.442 C573.7606,494.698 574.0823,494.137 574.7258,493.759 C574.6747,493.076 574.4398,492.341 574.021,491.556 C573.6023,490.77 573.1988,490.117 572.8107,489.597 C572.4226,489.077 571.9119,488.48 571.2786,487.807 C569.8691,486.266 569.1643,484.435 569.1643,482.313 C569.1643,480.966 569.4707,479.707 570.0836,478.533 C570.6964,477.36 571.4931,476.391 572.4736,475.626 C573.4542,474.861 574.5777,474.254 575.8442,473.805 C577.1108,473.356 578.3875,473.132 579.6745,473.132 C580.9614,473.132 582.2331,473.356 583.4894,473.805 C584.7457,474.254 585.8692,474.861 586.86,475.626 C587.8507,476.391 588.6525,477.36 589.2654,478.533 C589.8782,479.707 590.1795,480.966 590.1693,482.313" id="Fill-49"></path>
            </g>
        </g>
    </g>
</svg>
