<svg width="15px" height="14px" viewBox="0 0 15 14" version="1.1" xmlns="http://www.w3.org/2000/svg" xmlns:xlink="http://www.w3.org/1999/xlink">
    <defs></defs>
    <g id="Page-3" stroke="none" stroke-width="1" fill="none" fill-rule="evenodd">
        <g id="G20_-_Digital_Society_Platform" transform="translate(-631.000000, -296.000000)" fill="#873299">
            <g id="Group-830" transform="translate(631.000000, 296.000000)">
                <path d="M10.8024,1.23 C11.8396,1.833 12.658,2.653 13.2576,3.69 C13.8571,4.727 14.1591,5.855 14.1635,7.076 C14.1679,8.296 13.8659,9.425 13.2576,10.461 C12.6493,11.498 11.8309,12.318 10.8024,12.922 C9.774,13.526 8.6449,13.827 7.4151,13.827 C6.1853,13.827 5.054,13.526 4.0212,12.922 C2.9884,12.318 2.17,11.498 1.5661,10.461 C0.9621,9.425 0.6602,8.296 0.6602,7.076 C0.6602,5.855 0.9621,4.727 1.5661,3.69 C2.17,2.653 2.9884,1.833 4.0212,1.23 C5.054,0.626 6.1853,0.324 7.4151,0.324 C8.6361,0.324 9.7652,0.626 10.8024,1.23 Z M9.739,4.989 C9.6952,5.037 9.6558,5.066 9.6208,5.075 C9.6296,5.075 9.6427,5.059 9.6602,5.029 C9.6777,4.998 9.6908,4.965 9.6996,4.93 C9.7083,4.895 9.7193,4.876 9.7324,4.871 C9.7674,4.827 9.8331,4.784 9.9293,4.74 C10.0081,4.705 10.1591,4.67 10.3823,4.635 C10.5836,4.587 10.7346,4.617 10.8353,4.727 C10.8221,4.718 10.8484,4.681 10.914,4.615 C10.9797,4.55 11.0234,4.515 11.0453,4.51 C11.0628,4.497 11.1066,4.484 11.1766,4.471 C11.2466,4.458 11.2904,4.436 11.3079,4.405 C11.3079,4.405 11.3276,4.208 11.3276,4.208 C11.2532,4.217 11.2007,4.198 11.17,4.149 C11.1394,4.101 11.1197,4.04 11.111,3.966 C11.111,3.979 11.0935,4.003 11.0584,4.038 C11.0584,3.994 11.0453,3.97 11.0191,3.966 C10.9928,3.961 10.96,3.963 10.9206,3.972 C10.8812,3.981 10.8549,3.985 10.8418,3.985 C10.7849,3.968 10.7412,3.946 10.7105,3.92 C10.6799,3.894 10.6558,3.843 10.6383,3.769 C10.6208,3.694 10.6099,3.651 10.6055,3.638 C10.5924,3.611 10.5639,3.581 10.5202,3.546 C10.4764,3.511 10.4479,3.48 10.4348,3.454 C10.4304,3.445 10.4239,3.43 10.4151,3.408 C10.4064,3.386 10.3976,3.366 10.3889,3.349 C10.3801,3.331 10.3692,3.316 10.356,3.303 C10.3429,3.29 10.3254,3.281 10.3035,3.277 C10.2816,3.272 10.2619,3.288 10.2444,3.323 C10.2269,3.358 10.2051,3.388 10.1788,3.415 C10.1525,3.441 10.1394,3.454 10.1394,3.454 C10.1219,3.445 10.1044,3.441 10.0869,3.441 C10.0694,3.441 10.0563,3.445 10.0475,3.454 C10.0387,3.463 10.0256,3.471 10.0081,3.48 C9.9906,3.489 9.9753,3.498 9.9622,3.506 C9.9447,3.52 9.9206,3.528 9.89,3.533 C9.8593,3.537 9.8331,3.544 9.8112,3.552 C9.8987,3.522 9.8965,3.489 9.8046,3.454 C9.7433,3.432 9.6952,3.423 9.6602,3.428 C9.7127,3.406 9.7346,3.371 9.7258,3.323 C9.7171,3.275 9.693,3.233 9.6536,3.198 C9.6536,3.198 9.6996,3.198 9.6996,3.198 C9.6908,3.176 9.6646,3.152 9.6208,3.126 C9.577,3.1 9.5267,3.076 9.4698,3.054 C9.4129,3.032 9.3757,3.014 9.3582,3.001 C9.3101,2.971 9.2094,2.942 9.0563,2.916 C8.9031,2.89 8.8068,2.887 8.7674,2.909 C8.7368,2.944 8.7236,2.975 8.728,3.001 C8.7324,3.027 8.7433,3.069 8.7608,3.126 C8.7784,3.183 8.7893,3.22 8.7937,3.237 C8.798,3.272 8.7805,3.31 8.7412,3.349 C8.7018,3.388 8.6843,3.423 8.6886,3.454 C8.6886,3.498 8.7302,3.544 8.8134,3.592 C8.8965,3.64 8.925,3.703 8.8987,3.782 C8.8812,3.826 8.8331,3.872 8.7543,3.92 C8.6755,3.968 8.6296,4.003 8.6164,4.025 C8.5858,4.073 8.5814,4.128 8.6033,4.189 C8.6252,4.25 8.6558,4.298 8.6952,4.333 C8.7083,4.346 8.7127,4.357 8.7083,4.366 C8.704,4.375 8.693,4.39 8.6755,4.412 C8.658,4.434 8.6427,4.445 8.6296,4.445 C8.6164,4.445 8.5967,4.456 8.5705,4.477 C8.5705,4.477 8.5442,4.491 8.5442,4.491 C8.4829,4.521 8.4239,4.504 8.367,4.438 C8.3101,4.372 8.2707,4.296 8.2488,4.208 C8.205,4.064 8.1569,3.977 8.1044,3.946 C7.9731,3.898 7.8899,3.902 7.8549,3.959 C7.8243,3.88 7.7039,3.804 7.4939,3.729 C7.3451,3.677 7.1744,3.664 6.9818,3.69 C7.0169,3.686 7.0169,3.642 6.9818,3.559 C6.9425,3.471 6.8878,3.436 6.8177,3.454 C6.8352,3.419 6.8462,3.369 6.8506,3.303 C6.8549,3.237 6.8571,3.198 6.8571,3.185 C6.8746,3.106 6.9096,3.038 6.9622,2.981 C6.9709,2.977 6.9928,2.953 7.0278,2.909 C7.0628,2.866 7.0891,2.824 7.1066,2.785 C7.1241,2.745 7.1263,2.728 7.1131,2.732 C7.3188,2.758 7.4654,2.728 7.553,2.64 C7.5836,2.61 7.6164,2.559 7.6514,2.489 C7.6864,2.419 7.7171,2.369 7.7433,2.338 C7.8002,2.303 7.8418,2.288 7.8681,2.293 C7.8943,2.297 7.9381,2.312 7.9994,2.338 C8.0606,2.365 8.1022,2.38 8.1241,2.384 C8.2072,2.389 8.2532,2.356 8.2619,2.286 C8.2707,2.216 8.2488,2.157 8.1963,2.109 C8.2663,2.118 8.2751,2.069 8.2225,1.964 C8.1963,1.921 8.1722,1.892 8.1503,1.879 C8.0803,1.857 8.0015,1.873 7.914,1.925 C7.8659,1.951 7.8724,1.975 7.9337,1.997 C7.925,1.993 7.8965,2.024 7.8484,2.089 C7.8002,2.155 7.7521,2.205 7.7039,2.24 C7.6558,2.275 7.6077,2.262 7.5595,2.201 C7.5552,2.192 7.5398,2.153 7.5136,2.083 C7.4873,2.013 7.4589,1.973 7.4282,1.964 C7.3845,1.964 7.3385,2.008 7.2904,2.096 C7.3079,2.048 7.2751,2.004 7.1919,1.964 C7.1088,1.925 7.0387,1.901 6.9818,1.892 C7.0913,1.822 7.0672,1.744 6.9096,1.656 C6.8702,1.63 6.8112,1.615 6.7324,1.61 C6.6536,1.606 6.5967,1.617 6.5617,1.643 C6.5311,1.687 6.5136,1.722 6.5092,1.748 C6.5048,1.774 6.5201,1.796 6.5551,1.814 C6.5902,1.831 6.6208,1.849 6.6471,1.866 C6.6733,1.884 6.7061,1.894 6.7455,1.899 C6.7849,1.903 6.8112,1.912 6.8243,1.925 C6.9074,1.986 6.9315,2.028 6.8965,2.05 C6.8834,2.054 6.8571,2.065 6.8177,2.083 C6.7783,2.1 6.7455,2.113 6.7193,2.122 C6.693,2.131 6.6755,2.142 6.6667,2.155 C6.6492,2.177 6.6492,2.218 6.6667,2.279 C6.6843,2.341 6.6777,2.38 6.6471,2.398 C6.6164,2.371 6.5902,2.321 6.5683,2.247 C6.5464,2.172 6.5267,2.124 6.5092,2.102 C6.5486,2.155 6.4742,2.172 6.286,2.155 C6.286,2.155 6.2007,2.148 6.2007,2.148 C6.1744,2.148 6.1263,2.153 6.0562,2.161 C5.9862,2.17 5.9271,2.174 5.879,2.174 C5.8309,2.174 5.7915,2.15 5.7608,2.102 C5.7346,2.054 5.7346,1.995 5.7608,1.925 C5.7652,1.903 5.7762,1.899 5.7937,1.912 C5.7718,1.89 5.739,1.862 5.6952,1.827 C5.6514,1.792 5.623,1.765 5.6098,1.748 C5.3385,1.835 5.0628,1.956 4.7827,2.109 C4.8177,2.118 4.8527,2.115 4.8877,2.102 C4.9184,2.089 4.9578,2.069 5.0059,2.043 C5.054,2.017 5.0825,2.002 5.0912,1.997 C5.2926,1.914 5.4151,1.894 5.4589,1.938 C5.4589,1.938 5.5048,1.892 5.5048,1.892 C5.588,1.984 5.647,2.056 5.6821,2.109 C5.6383,2.087 5.5508,2.085 5.4195,2.102 C5.3013,2.137 5.2357,2.172 5.2225,2.207 C5.2619,2.277 5.2772,2.33 5.2685,2.365 C5.2422,2.347 5.2072,2.319 5.1635,2.279 C5.1197,2.24 5.0781,2.207 5.0387,2.181 C4.9993,2.155 4.9556,2.139 4.9074,2.135 C4.8112,2.135 4.7455,2.139 4.7105,2.148 C3.8571,2.616 3.17,3.266 2.6492,4.097 C2.6886,4.136 2.7236,4.16 2.7543,4.169 C2.7761,4.173 2.7893,4.2 2.7936,4.248 C2.798,4.296 2.8068,4.327 2.8199,4.34 C2.833,4.353 2.8659,4.344 2.9184,4.313 C2.9709,4.362 2.9796,4.418 2.9446,4.484 C2.9534,4.48 3.0825,4.558 3.3319,4.72 C3.4457,4.821 3.507,4.882 3.5157,4.904 C3.5333,4.97 3.5048,5.022 3.4304,5.061 C3.426,5.053 3.3998,5.026 3.3516,4.983 C3.3035,4.939 3.2772,4.928 3.2729,4.95 C3.2554,4.981 3.2554,5.035 3.2729,5.114 C3.2904,5.193 3.3232,5.228 3.3713,5.219 C3.3276,5.219 3.2991,5.267 3.286,5.363 C3.2729,5.459 3.2641,5.562 3.2597,5.672 C3.2554,5.781 3.2532,5.851 3.2532,5.882 C3.2554,5.958 3.2707,6.059 3.3188,6.19 C3.367,6.321 3.4304,6.38 3.5092,6.367 C3.4348,6.385 3.4939,6.509 3.6864,6.741 C3.7214,6.789 3.7433,6.816 3.7521,6.82 C3.7696,6.833 3.8068,6.855 3.8637,6.886 C3.9206,6.916 3.9643,6.947 3.995,6.977 C4.0256,7.008 4.054,7.039 4.0803,7.069 C4.1022,7.095 4.1306,7.161 4.1656,7.266 C4.2007,7.371 4.2422,7.439 4.2904,7.469 C4.2772,7.504 4.3057,7.564 4.3757,7.647 C4.4457,7.73 4.4764,7.798 4.4676,7.85 C4.4392,7.861 4.4304,7.865 4.4217,7.87 C4.4392,7.909 4.4851,7.948 4.5595,7.988 C4.6339,8.027 4.6799,8.067 4.6974,8.106 C4.7017,8.123 4.7061,8.152 4.7105,8.191 C4.7149,8.231 4.7236,8.263 4.7368,8.29 C4.7499,8.316 4.774,8.32 4.809,8.303 C4.8221,8.189 4.7521,8.008 4.5989,7.758 C4.5114,7.614 4.461,7.531 4.4479,7.509 C4.4304,7.478 4.4151,7.432 4.402,7.371 C4.3888,7.31 4.3757,7.266 4.3626,7.24 C4.3757,7.24 4.3932,7.244 4.4151,7.253 C4.437,7.262 4.461,7.273 4.4873,7.286 C4.5136,7.299 4.5354,7.31 4.553,7.319 C4.5705,7.327 4.577,7.338 4.5726,7.351 C4.5551,7.391 4.5617,7.441 4.5923,7.502 C4.623,7.564 4.658,7.618 4.6974,7.666 C4.7368,7.714 4.7871,7.769 4.8484,7.83 C4.9096,7.892 4.9446,7.931 4.9534,7.948 C4.9884,7.983 5.0278,8.04 5.0716,8.119 C5.1153,8.198 5.1153,8.237 5.0716,8.237 C5.1241,8.237 5.1832,8.268 5.2488,8.329 C5.3144,8.39 5.3648,8.447 5.3998,8.5 C5.4304,8.548 5.4545,8.624 5.472,8.729 C5.4895,8.834 5.5026,8.904 5.5114,8.939 C5.5245,8.979 5.5508,9.018 5.5902,9.057 C5.6295,9.097 5.6646,9.125 5.6952,9.143 C5.6952,9.143 5.8396,9.208 5.8396,9.208 C5.8396,9.208 5.8768,9.23 5.9512,9.274 C5.9818,9.283 6.0365,9.313 6.1153,9.366 C6.1941,9.418 6.2576,9.451 6.3057,9.464 C6.3626,9.49 6.4085,9.504 6.4436,9.504 C6.4786,9.504 6.5223,9.495 6.5748,9.477 C6.6274,9.46 6.6667,9.451 6.693,9.451 C6.7805,9.438 6.8659,9.482 6.949,9.582 C7.0322,9.683 7.0934,9.744 7.1328,9.766 C7.3429,9.875 7.5026,9.908 7.612,9.864 C7.6033,9.869 7.6055,9.891 7.6186,9.93 C7.6317,9.969 7.6558,10.013 7.6908,10.061 C7.7258,10.109 7.7521,10.153 7.7696,10.192 C7.7871,10.232 7.8024,10.256 7.8155,10.265 C7.8462,10.3 7.8987,10.343 7.9731,10.396 C8.0475,10.448 8.1,10.492 8.1306,10.527 C8.1657,10.505 8.1875,10.479 8.1963,10.448 C8.1788,10.496 8.1985,10.556 8.2554,10.626 C8.3123,10.695 8.3648,10.724 8.4129,10.711 C8.4961,10.693 8.5376,10.601 8.5376,10.435 C8.3538,10.523 8.2094,10.47 8.1044,10.278 C8.1044,10.269 8.0978,10.252 8.0847,10.225 C8.0716,10.199 8.0606,10.175 8.0519,10.153 C8.0431,10.131 8.0344,10.105 8.0256,10.074 C8.0169,10.044 8.0169,10.022 8.0256,10.009 C8.0344,9.996 8.0497,9.987 8.0716,9.982 C8.1241,9.982 8.1525,9.974 8.1569,9.956 C8.1613,9.939 8.1569,9.902 8.1438,9.845 C8.1306,9.788 8.1175,9.748 8.1044,9.727 C8.1,9.683 8.0694,9.626 8.0125,9.556 C7.9556,9.486 7.9206,9.442 7.9074,9.425 C7.8768,9.477 7.8287,9.499 7.763,9.49 C7.6974,9.482 7.6514,9.455 7.6252,9.412 C7.6252,9.42 7.6208,9.438 7.612,9.464 C7.6033,9.49 7.5989,9.508 7.5989,9.517 C7.5201,9.517 7.4764,9.514 7.4676,9.51 C7.472,9.493 7.4786,9.442 7.4873,9.359 C7.4961,9.276 7.507,9.208 7.5201,9.156 C7.5245,9.134 7.5398,9.099 7.5661,9.051 C7.5924,9.003 7.6142,8.961 7.6317,8.926 C7.6492,8.891 7.6602,8.854 7.6646,8.815 C7.6689,8.775 7.6558,8.747 7.6252,8.729 C7.5945,8.712 7.5442,8.705 7.4742,8.71 C7.3648,8.714 7.2882,8.773 7.2444,8.887 C7.2401,8.904 7.2313,8.935 7.2182,8.979 C7.205,9.022 7.1897,9.055 7.1722,9.077 C7.1547,9.099 7.1285,9.121 7.0934,9.143 C7.0541,9.16 6.984,9.165 6.8834,9.156 C6.7827,9.147 6.7127,9.134 6.6733,9.116 C6.5989,9.068 6.5333,8.983 6.4764,8.86 C6.4195,8.738 6.391,8.629 6.391,8.532 C6.391,8.476 6.3998,8.399 6.4173,8.303 C6.4348,8.207 6.4436,8.132 6.4436,8.08 C6.4436,8.027 6.426,7.957 6.391,7.87 C6.4085,7.857 6.4348,7.828 6.4698,7.784 C6.5048,7.741 6.5355,7.71 6.5617,7.693 C6.5705,7.684 6.5836,7.679 6.6011,7.679 C6.6186,7.679 6.6317,7.679 6.6405,7.679 C6.6492,7.679 6.6602,7.675 6.6733,7.666 C6.6864,7.658 6.6952,7.64 6.6996,7.614 C6.6952,7.605 6.6843,7.596 6.6667,7.588 C6.6492,7.57 6.6361,7.561 6.6274,7.561 C6.6711,7.579 6.7565,7.574 6.8834,7.548 C7.0103,7.522 7.0891,7.526 7.1197,7.561 C7.2072,7.623 7.2729,7.616 7.3166,7.542 C7.3166,7.537 7.3079,7.509 7.2904,7.456 C7.2729,7.404 7.2729,7.364 7.2904,7.338 C7.321,7.496 7.4064,7.522 7.5464,7.417 C7.5639,7.434 7.6077,7.45 7.6777,7.463 C7.7477,7.476 7.8002,7.491 7.8352,7.509 C7.8527,7.518 7.8724,7.533 7.8943,7.555 C7.9162,7.577 7.9337,7.59 7.9468,7.594 C7.96,7.599 7.9731,7.596 7.9862,7.588 C7.9994,7.579 8.0256,7.561 8.065,7.535 C8.1219,7.614 8.1569,7.684 8.17,7.745 C8.2313,7.977 8.286,8.106 8.3341,8.132 C8.3779,8.15 8.4107,8.154 8.4326,8.145 C8.4545,8.137 8.4676,8.11 8.472,8.067 C8.4764,8.023 8.4764,7.981 8.472,7.942 C8.4676,7.903 8.4633,7.865 8.4589,7.83 C8.4589,7.83 8.4523,7.758 8.4523,7.758 C8.4523,7.758 8.4523,7.601 8.4523,7.601 C8.4523,7.601 8.4392,7.535 8.4392,7.535 C8.3517,7.518 8.2969,7.483 8.2751,7.43 C8.2532,7.378 8.2597,7.323 8.2948,7.266 C8.3298,7.209 8.3735,7.155 8.4261,7.102 C8.4304,7.098 8.4523,7.087 8.4917,7.069 C8.5311,7.052 8.577,7.034 8.6296,7.017 C8.6821,6.999 8.7193,6.975 8.7412,6.945 C8.8637,6.831 8.9075,6.728 8.8724,6.636 C8.9118,6.636 8.9447,6.61 8.9709,6.557 C8.9622,6.557 8.9468,6.549 8.925,6.531 C8.9031,6.514 8.8812,6.498 8.8593,6.485 C8.8374,6.472 8.8243,6.468 8.8199,6.472 C8.8724,6.442 8.879,6.393 8.8396,6.328 C8.8659,6.31 8.8878,6.277 8.9053,6.229 C8.9228,6.181 8.9447,6.153 8.9709,6.144 C9.0234,6.214 9.0847,6.221 9.1547,6.164 C9.1985,6.116 9.2007,6.068 9.1613,6.019 C9.1919,5.98 9.2532,5.949 9.3451,5.928 C9.437,5.906 9.4895,5.877 9.5026,5.842 C9.5464,5.855 9.5705,5.851 9.5749,5.829 C9.5792,5.807 9.5814,5.772 9.5814,5.724 C9.5814,5.676 9.5902,5.641 9.6077,5.619 C9.6339,5.589 9.6777,5.562 9.739,5.54 C9.8002,5.519 9.8396,5.503 9.8571,5.494 C9.8571,5.494 10.0081,5.396 10.0081,5.396 C10.0256,5.374 10.0256,5.363 10.0081,5.363 C10.1131,5.376 10.2029,5.344 10.2773,5.265 C10.3385,5.199 10.321,5.14 10.2247,5.088 C10.2423,5.053 10.2335,5.026 10.1985,5.009 C10.1635,4.991 10.1197,4.974 10.0672,4.956 C10.0847,4.952 10.1175,4.952 10.1657,4.956 C10.2138,4.961 10.2466,4.956 10.2641,4.943 C10.3517,4.882 10.3298,4.834 10.1985,4.799 C10.0978,4.768 9.9731,4.803 9.8243,4.904 C9.8112,4.913 9.7827,4.941 9.739,4.989 Z M11.472,10.954 C11.4545,10.936 11.4195,10.923 11.367,10.914 C11.3145,10.905 11.2773,10.895 11.2554,10.881 C11.1503,10.842 11.0803,10.818 11.0453,10.809 C11.0497,10.77 11.0409,10.733 11.0191,10.698 C10.9972,10.663 10.9753,10.636 10.9534,10.619 C10.9315,10.601 10.8943,10.577 10.8418,10.547 C10.7893,10.516 10.7565,10.496 10.7433,10.488 C10.7302,10.475 10.7105,10.457 10.6843,10.435 C10.658,10.413 10.6361,10.396 10.6186,10.383 C10.6011,10.37 10.5792,10.356 10.553,10.343 C10.5267,10.33 10.5026,10.326 10.4808,10.33 C10.4589,10.335 10.4304,10.337 10.3954,10.337 C10.3954,10.337 10.3692,10.343 10.3692,10.343 C10.3517,10.352 10.3342,10.361 10.3166,10.37 C10.2991,10.378 10.2838,10.387 10.2707,10.396 C10.2576,10.405 10.2444,10.413 10.2313,10.422 C10.2182,10.431 10.2182,10.437 10.2313,10.442 C10.1088,10.341 10.0037,10.276 9.9162,10.245 C9.89,10.241 9.8593,10.225 9.8243,10.199 C9.7893,10.173 9.7565,10.153 9.7258,10.14 C9.6952,10.127 9.6668,10.122 9.6405,10.127 C9.6142,10.131 9.5814,10.151 9.542,10.186 C9.5114,10.217 9.4939,10.26 9.4895,10.317 C9.4851,10.374 9.4786,10.413 9.4698,10.435 C9.4304,10.405 9.4304,10.352 9.4698,10.278 C9.5092,10.203 9.5158,10.149 9.4895,10.114 C9.472,10.079 9.4414,10.066 9.3976,10.074 C9.3538,10.083 9.3188,10.096 9.2926,10.114 C9.2663,10.131 9.2313,10.157 9.1875,10.192 C9.1438,10.227 9.1175,10.245 9.1088,10.245 C9.1,10.245 9.0759,10.262 9.0366,10.297 C8.9972,10.332 8.9709,10.354 8.9578,10.363 C8.9403,10.385 8.9228,10.42 8.9053,10.468 C8.8878,10.516 8.8746,10.549 8.8659,10.566 C8.8527,10.54 8.8177,10.521 8.7608,10.507 C8.704,10.494 8.6755,10.479 8.6755,10.461 C8.6886,10.518 8.7018,10.621 8.7149,10.77 C8.728,10.919 8.7412,11.028 8.7543,11.098 C8.798,11.282 8.763,11.424 8.6492,11.524 C8.4917,11.669 8.4085,11.785 8.3998,11.872 C8.3735,12.003 8.4085,12.08 8.5048,12.102 C8.5048,12.141 8.4808,12.202 8.4326,12.286 C8.3845,12.369 8.3648,12.43 8.3735,12.469 C8.3735,12.504 8.3779,12.552 8.3867,12.614 C9.5945,12.404 10.623,11.85 11.472,10.954 Z" id="icon-country"></path>
            </g>
        </g>
    </g>
</svg>
