<svg width="90px" height="80px" viewBox="0 0 90 80" version="1.1" xmlns="http://www.w3.org/2000/svg" xmlns:xlink="http://www.w3.org/1999/xlink">
    <defs></defs>
    <g id="Page-1" stroke="none" stroke-width="1" fill="none" fill-rule="evenodd">
        <path d="M88.1,66.1 L53.1,4.6 C51.5,1.7 48.5,0 45,0 C41.5,0 38.6,1.7 36.9,4.6 L1.9,66.1 C0.3,69 0.3,72.5 1.9,75.4 C3.5,78.3 6.5,80 9.9,80 L79.8,80 C83.2,80 86.2,78.3 87.8,75.4 C89.7,72.5 89.7,69 88.1,66.1 Z M50.9283171,65.2612524 L39.7,65.2612524 L39.7,55 L50.9283171,55 L50.9283171,65.2612524 Z M50.9283171,49.3902539 L39.7,49.3902539 L39.7,20 L50.9283171,20 L50.9283171,49.3902539 Z" id="Shape" fill="#F7931E" fill-rule="nonzero"></path>
    </g>
</svg>
