<svg width="12px" height="11px" viewBox="0 0 12 11" version="1.1" xmlns="http://www.w3.org/2000/svg" xmlns:xlink="http://www.w3.org/1999/xlink">
    <defs></defs>
    <g id="Page-1" stroke="none" stroke-width="1" fill="none" fill-rule="evenodd">
        <g id="G20_-_Digital_Society_Platform" transform="translate(-292.000000, -773.000000)" fill="#873299">
            <g id="Group-211" transform="translate(292.000000, 773.000000)">
                <path d="M3.679,2.2761 C3.679,2.0313 3.5927,1.8226 3.4202,1.6501 C3.2477,1.4777 3.0389,1.3914 2.7939,1.3914 C2.5489,1.3914 2.3384,1.4777 2.1624,1.6501 C1.9864,1.8226 1.9001,2.0313 1.9036,2.2761 C1.907,2.521 1.9933,2.7297 2.1624,2.9022 C2.3315,3.0746 2.542,3.1608 2.7939,3.1608 C3.0458,3.1608 3.2546,3.0746 3.4202,2.9022 C3.5858,2.7297 3.6721,2.521 3.679,2.2761 M11.0758,6.265 C11.0758,6.5099 10.9895,6.7186 10.817,6.8911 C10.817,6.8911 7.4162,10.3005 7.4162,10.3005 C7.2368,10.4695 7.0263,10.554 6.7847,10.554 C6.5397,10.554 6.3309,10.4695 6.1584,10.3005 C6.1584,10.3005 1.2048,5.339 1.2048,5.339 C1.0288,5.1665 0.8787,4.9337 0.7545,4.6405 C0.6302,4.3473 0.5698,4.0766 0.5733,3.8282 C0.5733,3.8282 0.5733,0.9465 0.5733,0.9465 C0.5733,0.7051 0.6613,0.4964 0.8373,0.3205 C1.0133,0.1446 1.2203,0.0566 1.4584,0.0566 C1.4584,0.0566 4.3467,0.0566 4.3467,0.0566 C4.5917,0.0566 4.8609,0.1187 5.1542,0.2429 C5.4475,0.3671 5.6839,0.5154 5.8634,0.6878 C5.8634,0.6878 10.817,5.639 10.817,5.639 C10.9895,5.8184 11.0758,6.0271 11.0758,6.265" id="Fill-208"></path>
            </g>
        </g>
    </g>
</svg>
