<svg width="15px" height="15px" viewBox="0 0 15 15" version="1.1" xmlns="http://www.w3.org/2000/svg" xmlns:xlink="http://www.w3.org/1999/xlink">
    <defs></defs>
    <g id="Page-3" stroke="none" stroke-width="1" fill="none" fill-rule="evenodd">
        <g id="G20_-_Digital_Society_Platform" transform="translate(-631.000000, -690.000000)" fill="#873299">
            <g id="Group-830" transform="translate(631.000000, 296.000000)">
                <path d="M10.3032,403.4106 C10.3032,403.4106 14.1613,407.2687 14.1613,407.2687 C14.1613,407.2687 13.0039,408.4261 13.0039,408.4261 C13.0039,408.4261 9.1458,404.568 9.1458,404.568 C9.1458,404.568 9.1458,403.9584 9.1458,403.9584 C9.1458,403.9584 8.9375,403.7424 8.9375,403.7424 C8.0578,404.4986 6.9158,404.9538 5.6735,404.9538 C2.9035,404.9538 0.658,402.7083 0.658,399.9383 C0.658,397.1683 2.9035,394.9227 5.6735,394.9227 C8.4435,394.9227 10.689,397.1683 10.689,399.9383 C10.689,401.1806 10.2338,402.3226 9.4776,403.2022 C9.4776,403.2022 9.6936,403.4106 9.6936,403.4106 C9.6936,403.4106 10.3032,403.4106 10.3032,403.4106 M5.6735,396.0802 C5.6735,396.0802 5.2491,396.1033 5.2491,396.1033 C5.0639,396.5046 4.7784,397.1836 4.5701,398.0092 C4.5701,398.0092 6.7769,398.0092 6.7769,398.0092 C6.5686,397.1836 6.2831,396.5046 6.0979,396.1033 C5.959,396.0802 5.8201,396.0802 5.6735,396.0802 M9.0146,398.0092 C8.5594,397.2144 7.8263,396.5971 6.9467,396.2962 C7.1319,396.7052 7.3711,397.2993 7.5485,398.0092 C7.5485,398.0092 9.0146,398.0092 9.0146,398.0092 M2.3324,398.0092 C2.3324,398.0092 3.7985,398.0092 3.7985,398.0092 C3.9759,397.2993 4.2151,396.7052 4.4003,396.2962 C3.5207,396.5971 2.7876,397.2144 2.3324,398.0092 M1.8154,399.9383 C1.8154,400.3241 1.8771,400.733 1.9929,401.0957 C1.9929,401.0957 3.6441,401.0957 3.6441,401.0957 C3.6441,401.0957 3.5515,399.9383 3.5515,399.9383 C3.5515,399.9383 3.6441,398.7808 3.6441,398.7808 C3.6441,398.7808 1.9929,398.7808 1.9929,398.7808 C1.8771,399.1435 1.8154,399.5525 1.8154,399.9383 M9.3541,401.0957 C9.4699,400.733 9.5316,400.3241 9.5316,399.9383 C9.5316,399.5525 9.4699,399.1435 9.3541,398.7808 C9.3541,398.7808 7.7029,398.7808 7.7029,398.7808 C7.7646,399.1666 7.7955,399.5525 7.7955,399.9383 C7.7955,400.3241 7.7646,400.7099 7.7029,401.0957 C7.7029,401.0957 9.3541,401.0957 9.3541,401.0957 M4.4158,398.7808 C4.4158,398.7808 4.3232,399.9383 4.3232,399.9383 C4.3232,399.9383 4.4158,401.0957 4.4158,401.0957 C4.4158,401.0957 6.9312,401.0957 6.9312,401.0957 C6.993,400.7099 7.0238,400.3241 7.0238,399.9383 C7.0238,399.5525 6.993,399.1666 6.9312,398.7808 C6.9312,398.7808 4.4158,398.7808 4.4158,398.7808 M5.6735,403.7964 C5.8124,403.7964 5.9513,403.7964 6.0825,403.7732 C6.2754,403.372 6.5686,402.693 6.7769,401.8673 C6.7769,401.8673 4.5701,401.8673 4.5701,401.8673 C4.7784,402.693 5.0716,403.372 5.2645,403.7732 C5.2645,403.7732 5.6735,403.7964 5.6735,403.7964 M9.0146,401.8673 C9.0146,401.8673 7.5485,401.8673 7.5485,401.8673 C7.3711,402.5772 7.1319,403.1714 6.9467,403.5803 C7.8263,403.2794 8.5594,402.6621 9.0146,401.8673 M2.3324,401.8673 C2.7876,402.6621 3.5207,403.2794 4.4003,403.5803 C4.2151,403.1714 3.9759,402.5772 3.7985,401.8673 C3.7985,401.8673 2.3324,401.8673 2.3324,401.8673" id="Fill-822"></path>
            </g>
        </g>
    </g>
</svg>
