<svg width="10px" height="16px" viewBox="0 0 10 16" version="1.1" xmlns="http://www.w3.org/2000/svg" xmlns:xlink="http://www.w3.org/1999/xlink">
    <defs></defs>
    <g id="Page-2" stroke="none" stroke-width="1" fill="none" fill-rule="evenodd">
        <g id="G20_-_Digital_Society_Platform" transform="translate(-671.000000, -704.000000)" fill="#000000">
            <g id="Group-440">
                <g id="Group" transform="translate(676.000000, 712.000000) scale(1, -1) translate(-676.000000, -712.000000) translate(671.000000, 704.000000)">
                    <path d="M9.4202,10.4062 C9.4202,10.5648 9.3654,10.7008 9.256,10.8141 C9.256,10.8141 5.3163,14.8934 5.3163,14.8934 C5.2069,15.0112 5.0755,15.0702 4.9223,15.0702 C4.7691,15.0702 4.6356,15.0112 4.5218,14.8934 C4.5218,14.8934 0.5821,10.8141 0.5821,10.8141 C0.4726,10.7008 0.4179,10.5648 0.4179,10.4062 C0.4179,10.2475 0.4726,10.1116 0.5821,9.9982 C0.6915,9.8849 0.825,9.826 0.9826,9.8215 C0.9826,9.8215 8.862,9.8215 8.862,9.8215 C9.0152,9.8215 9.1466,9.8804 9.256,9.9982 C9.3654,10.1161 9.4202,10.2521 9.4202,10.4062" id="Fill-433"></path>
                    <path d="M0.4178,5.4878 C0.4178,5.3291 0.4726,5.1931 0.582,5.0798 C0.582,5.0798 4.5217,1.0005 4.5217,1.0005 C4.6312,0.8827 4.7625,0.8238 4.9157,0.8238 C5.0689,0.8238 5.2024,0.8827 5.3162,1.0005 C5.3162,1.0005 9.2559,5.0798 9.2559,5.0798 C9.3654,5.1931 9.4201,5.3291 9.4201,5.4878 C9.4201,5.6464 9.3654,5.7824 9.2559,5.8957 C9.1465,6.009 9.013,6.0679 8.8554,6.0725 C8.8554,6.0725 0.976,6.0725 0.976,6.0725 C0.8228,6.0725 0.6914,6.0135 0.582,5.8957 C0.4726,5.7778 0.4178,5.6419 0.4178,5.4878" id="Fill-434" fill-opacity="0.498"></path>
                </g>
            </g>
        </g>
    </g>
</svg>
