<svg width="13px" height="14px" viewBox="0 0 13 14" version="1.1" xmlns="http://www.w3.org/2000/svg" xmlns:xlink="http://www.w3.org/1999/xlink">
    <defs></defs>
    <g id="Page-3" stroke="none" stroke-width="1" fill="none" fill-rule="evenodd">
        <g id="G20_-_Digital_Society_Platform" transform="translate(-632.000000, -359.000000)" fill="#873299">
            <g id="Group-830" transform="translate(631.000000, 296.000000)">
                <path d="M1.9516,75.184 C1.9516,75.184 4.0302,75.184 4.0302,75.184 C4.0302,75.184 4.0302,73.133 4.0302,73.133 C4.0302,73.133 1.9516,73.133 1.9516,73.133 C1.9516,73.133 1.9516,75.184 1.9516,75.184 M4.4933,75.184 C4.4933,75.184 6.798,75.184 6.798,75.184 C6.798,75.184 6.798,73.133 6.798,73.133 C6.798,73.133 4.4933,73.133 4.4933,73.133 C4.4933,73.133 4.4933,75.184 4.4933,75.184 M1.9516,72.676 C1.9516,72.676 4.0302,72.676 4.0302,72.676 C4.0302,72.676 4.0302,70.402 4.0302,70.402 C4.0302,70.402 1.9516,70.402 1.9516,70.402 C1.9516,70.402 1.9516,72.676 1.9516,72.676 M4.4933,72.676 C4.4933,72.676 6.798,72.676 6.798,72.676 C6.798,72.676 6.798,70.402 6.798,70.402 C6.798,70.402 4.4933,70.402 4.4933,70.402 C4.4933,70.402 4.4933,72.676 4.4933,72.676 M1.9516,69.945 C1.9516,69.945 4.0302,69.945 4.0302,69.945 C4.0302,69.945 4.0302,67.894 4.0302,67.894 C4.0302,67.894 1.9516,67.894 1.9516,67.894 C1.9516,67.894 1.9516,69.945 1.9516,69.945 M7.2611,75.184 C7.2611,75.184 9.5713,75.184 9.5713,75.184 C9.5713,75.184 9.5713,73.133 9.5713,73.133 C9.5713,73.133 7.2611,73.133 7.2611,73.133 C7.2611,73.133 7.2611,75.184 7.2611,75.184 M4.4933,69.945 C4.4933,69.945 6.798,69.945 6.798,69.945 C6.798,69.945 6.798,67.894 6.798,67.894 C6.798,67.894 4.4933,67.894 4.4933,67.894 C4.4933,67.894 4.4933,69.945 4.4933,69.945 M10.029,75.184 C10.029,75.184 12.1076,75.184 12.1076,75.184 C12.1076,75.184 12.1076,73.133 12.1076,73.133 C12.1076,73.133 10.029,73.133 10.029,73.133 C10.029,73.133 10.029,75.184 10.029,75.184 M7.2611,72.676 C7.2611,72.676 9.5713,72.676 9.5713,72.676 C9.5713,72.676 9.5713,70.402 9.5713,70.402 C9.5713,70.402 7.2611,70.402 7.2611,70.402 C7.2611,70.402 7.2611,72.676 7.2611,72.676 M4.7248,66.528 C4.7248,66.528 4.7248,64.477 4.7248,64.477 C4.7248,64.417 4.7015,64.364 4.6548,64.318 C4.6081,64.272 4.5543,64.249 4.4933,64.249 C4.4933,64.249 4.0302,64.249 4.0302,64.249 C3.9691,64.249 3.9153,64.272 3.8686,64.318 C3.8219,64.364 3.7986,64.417 3.7986,64.477 C3.7986,64.477 3.7986,66.528 3.7986,66.528 C3.7986,66.588 3.8219,66.641 3.8686,66.688 C3.9153,66.734 3.9691,66.757 4.0302,66.757 C4.0302,66.757 4.4933,66.757 4.4933,66.757 C4.5543,66.757 4.6081,66.734 4.6548,66.688 C4.7015,66.641 4.7248,66.588 4.7248,66.528 M10.029,72.676 C10.029,72.676 12.1076,72.676 12.1076,72.676 C12.1076,72.676 12.1076,70.402 12.1076,70.402 C12.1076,70.402 10.029,70.402 10.029,70.402 C10.029,70.402 10.029,72.676 10.029,72.676 M7.2611,69.945 C7.2611,69.945 9.5713,69.945 9.5713,69.945 C9.5713,69.945 9.5713,67.894 9.5713,67.894 C9.5713,67.894 7.2611,67.894 7.2611,67.894 C7.2611,67.894 7.2611,69.945 7.2611,69.945 M10.029,69.945 C10.029,69.945 12.1076,69.945 12.1076,69.945 C12.1076,69.945 12.1076,67.894 12.1076,67.894 C12.1076,67.894 10.029,67.894 10.029,67.894 C10.029,67.894 10.029,69.945 10.029,69.945 M10.2605,66.528 C10.2605,66.528 10.2605,64.477 10.2605,64.477 C10.2605,64.417 10.239,64.364 10.1959,64.318 C10.1528,64.272 10.0972,64.249 10.029,64.249 C10.029,64.249 9.5713,64.249 9.5713,64.249 C9.5066,64.249 9.4528,64.272 9.4097,64.318 C9.3666,64.364 9.3433,64.417 9.3397,64.477 C9.3397,64.477 9.3397,66.528 9.3397,66.528 C9.3397,66.588 9.363,66.641 9.4097,66.688 C9.4564,66.734 9.5102,66.757 9.5713,66.757 C9.5713,66.757 10.029,66.757 10.029,66.757 C10.0936,66.757 10.1492,66.734 10.1959,66.688 C10.2426,66.641 10.2641,66.588 10.2605,66.528 M13.0338,66.071 C13.0338,66.071 13.0338,75.184 13.0338,75.184 C13.0338,75.429 12.9422,75.641 12.7591,75.822 C12.576,76.003 12.3589,76.093 12.1076,76.093 C12.1076,76.093 1.9516,76.093 1.9516,76.093 C1.7039,76.093 1.4885,76.003 1.3054,75.822 C1.1223,75.641 1.0308,75.429 1.0308,75.184 C1.0308,75.184 1.0308,66.071 1.0308,66.071 C1.0308,65.827 1.1223,65.614 1.3054,65.433 C1.4885,65.253 1.7039,65.162 1.9516,65.162 C1.9516,65.162 2.8778,65.162 2.8778,65.162 C2.8778,65.162 2.8778,64.477 2.8778,64.477 C2.8778,64.165 2.9909,63.898 3.217,63.675 C3.4432,63.451 3.7142,63.34 4.0302,63.34 C4.0302,63.34 4.4933,63.34 4.4933,63.34 C4.8092,63.34 5.0802,63.451 5.3064,63.675 C5.5326,63.898 5.6456,64.165 5.6456,64.477 C5.6456,64.477 5.6456,65.162 5.6456,65.162 C5.6456,65.162 8.4135,65.162 8.4135,65.162 C8.4135,65.162 8.4135,64.477 8.4135,64.477 C8.4135,64.165 8.5266,63.898 8.7527,63.675 C8.9789,63.451 9.2517,63.34 9.5713,63.34 C9.5713,63.34 10.029,63.34 10.029,63.34 C10.3485,63.34 10.6213,63.451 10.8475,63.675 C11.0736,63.898 11.1867,64.165 11.1867,64.477 C11.1867,64.477 11.1867,65.162 11.1867,65.162 C11.1867,65.162 12.1076,65.162 12.1076,65.162 C12.3589,65.162 12.576,65.253 12.7591,65.433 C12.9422,65.614 13.0338,65.827 13.0338,66.071" id="icon-date"></path>
            </g>
        </g>
    </g>
</svg>
