<svg width="32px" height="32px" viewBox="0 0 32 32" version="1.1" xmlns="http://www.w3.org/2000/svg" xmlns:xlink="http://www.w3.org/1999/xlink">
    <defs></defs>
    <g id="Page-1" stroke="none" stroke-width="1" fill="none" fill-rule="evenodd" fill-opacity="0.749">
        <g id="G20_-_Digital_Society_Platform" transform="translate(-434.000000, -473.000000)" fill="#EF4023">
            <g id="Group-51">
                <path d="M440.1015,474.563 C440.1015,473.776 439.4571,473.132 438.6694,473.132 C437.8817,473.132 437.2372,473.776 437.2372,474.563 C437.2372,474.563 437.2372,480.289 437.2372,480.289 C437.2372,480.289 434.3728,480.289 434.3728,480.289 C434.3728,480.289 434.3728,488.878 434.3728,488.878 C434.3728,488.878 442.9659,488.878 442.9659,488.878 C442.9659,488.878 442.9659,480.289 442.9659,480.289 C442.9659,480.289 440.1015,480.289 440.1015,480.289 C440.1015,480.289 440.1015,474.563 440.1015,474.563 M445.8302,494.604 C445.8302,496.464 447.0333,498.039 448.6946,498.64 C448.6946,498.64 448.6946,504.6238 448.6946,504.6238 C448.6946,504.6238 451.5589,504.6238 451.5589,504.6238 C451.5589,504.6238 451.5589,498.64 451.5589,498.64 C453.2203,498.053 454.4233,496.479 454.4233,494.604 C454.4233,494.604 454.4233,491.741 454.4233,491.741 C454.4233,491.741 445.8302,491.741 445.8302,491.741 C445.8302,491.741 445.8302,494.604 445.8302,494.604 M434.3728,494.604 C434.3728,496.464 435.5759,498.039 437.2372,498.64 C437.2372,498.64 437.2372,504.6238 437.2372,504.6238 C437.2372,504.6238 440.1015,504.6238 440.1015,504.6238 C440.1015,504.6238 440.1015,498.64 440.1015,498.64 C441.7629,498.039 442.9659,496.464 442.9659,494.604 C442.9659,494.604 442.9659,491.741 442.9659,491.741 C442.9659,491.741 434.3728,491.741 434.3728,491.741 C434.3728,491.741 434.3728,494.604 434.3728,494.604 M463.0164,480.289 C463.0164,480.289 463.0164,474.563 463.0164,474.563 C463.0164,473.776 462.3719,473.132 461.5842,473.132 C460.7965,473.132 460.152,473.776 460.152,474.563 C460.152,474.563 460.152,480.289 460.152,480.289 C460.152,480.289 457.2877,480.289 457.2877,480.289 C457.2877,480.289 457.2877,488.878 457.2877,488.878 C457.2877,488.878 465.8807,488.878 465.8807,488.878 C465.8807,488.878 465.8807,480.289 465.8807,480.289 C465.8807,480.289 463.0164,480.289 463.0164,480.289 M451.5589,474.563 C451.5589,473.776 450.9145,473.132 450.1268,473.132 C449.3391,473.132 448.6946,473.776 448.6946,474.563 C448.6946,474.563 448.6946,480.289 448.6946,480.289 C448.6946,480.289 445.8302,480.289 445.8302,480.289 C445.8302,480.289 445.8302,488.878 445.8302,488.878 C445.8302,488.878 454.4233,488.878 454.4233,488.878 C454.4233,488.878 454.4233,480.289 454.4233,480.289 C454.4233,480.289 451.5589,480.289 451.5589,480.289 C451.5589,480.289 451.5589,474.563 451.5589,474.563 M457.2877,494.604 C457.2877,496.464 458.4907,498.039 460.152,498.64 C460.152,498.64 460.152,504.6238 460.152,504.6238 C460.152,504.6238 463.0164,504.6238 463.0164,504.6238 C463.0164,504.6238 463.0164,498.64 463.0164,498.64 C464.6777,498.053 465.8807,496.479 465.8807,494.604 C465.8807,494.604 465.8807,491.741 465.8807,491.741 C465.8807,491.741 457.2877,491.741 457.2877,491.741 C457.2877,491.741 457.2877,494.604 457.2877,494.604" id="Fill-48"></path>
            </g>
        </g>
    </g>
</svg>
