<svg width="23px" height="32px" viewBox="0 0 23 32" version="1.1" xmlns="http://www.w3.org/2000/svg" xmlns:xlink="http://www.w3.org/1999/xlink">
    <defs></defs>
    <g id="Page-1" stroke="none" stroke-width="1" fill="none" fill-rule="evenodd" fill-opacity="0.749">
        <g id="G20_-_Digital_Society_Platform" transform="translate(-699.000000, -473.000000)" fill="#87C979">
            <g id="Group-51">
                <path d="M710.3046,473.132 C704.3063,473.132 699.4269,478.076 699.4269,484.154 C699.4269,492.421 710.3046,504.6238 710.3046,504.6238 C710.3046,504.6238 721.1823,492.421 721.1823,484.154 C721.1823,478.076 716.3029,473.132 710.3046,473.132 M710.3046,476.281 C712.6971,476.281 714.1924,478.905 712.9961,481.005 C712.441,481.979 711.415,482.579 710.3046,482.579 C707.9121,482.579 706.4168,479.955 707.6131,477.855 C708.1682,476.881 709.1942,476.281 710.3046,476.281 M710.3046,492.027 C707.7095,492.027 705.4252,490.689 704.0888,488.642 C704.1198,486.563 708.2378,485.414 710.3046,485.414 C712.3714,485.414 716.4894,486.563 716.5204,488.642 C715.1436,490.759 712.8071,492.031 710.3046,492.027" id="Fill-50"></path>
            </g>
        </g>
    </g>
</svg>
