<svg width="13px" height="14px" viewBox="0 0 13 14" version="1.1" xmlns="http://www.w3.org/2000/svg" xmlns:xlink="http://www.w3.org/1999/xlink">
    <defs></defs>
    <g id="Page-3" stroke="none" stroke-width="1" fill="none" fill-rule="evenodd">
        <g id="G20_-_Digital_Society_Platform" transform="translate(-632.000000, -424.000000)" fill="#873299">
            <g id="Group-830" transform="translate(631.000000, 296.000000)">
                <path d="M11.8524,129.899 C11.8524,129.899 11.1856,129.899 11.1856,129.899 C11.1856,129.899 11.1856,128.606 11.1856,128.606 C11.1856,128.606 9.8519,128.606 9.8519,128.606 C9.8519,128.606 9.8519,129.899 9.8519,129.899 C9.8519,129.899 4.5173,129.899 4.5173,129.899 C4.5173,129.899 4.5173,128.606 4.5173,128.606 C4.5173,128.606 3.1836,128.606 3.1836,128.606 C3.1836,128.606 3.1836,129.899 3.1836,129.899 C3.1836,129.899 2.5168,129.899 2.5168,129.899 C1.7802,129.899 1.1831,130.478 1.1831,131.191 C1.1831,131.191 1.1831,140.24 1.1831,140.24 C1.1831,140.954 1.7802,141.532 2.5168,141.532 C2.5168,141.532 11.8524,141.532 11.8524,141.532 C12.586,141.532 13.1861,140.951 13.1861,140.24 C13.1861,140.24 13.1861,131.191 13.1861,131.191 C13.1861,130.48 12.586,129.899 11.8524,129.899 M7.1846,131.838 C8.2916,131.838 9.1851,132.704 9.1851,133.777 C9.1851,134.85 8.2916,135.716 7.1846,135.716 C6.0777,135.716 5.1841,134.85 5.1841,133.777 C5.1841,132.704 6.0777,131.838 7.1846,131.838 M11.1856,139.594 C11.1856,139.594 3.1836,139.594 3.1836,139.594 C3.1836,139.594 3.1836,138.947 3.1836,138.947 C3.1836,137.655 5.8509,136.944 7.1846,136.944 C8.5183,136.944 11.1856,137.655 11.1856,138.947 C11.1856,138.947 11.1856,139.594 11.1856,139.594" id="icon-leader"></path>
            </g>
        </g>
    </g>
</svg>
