<svg width="10px" height="18px" viewBox="0 0 10 18" version="1.1" xmlns="http://www.w3.org/2000/svg" xmlns:xlink="http://www.w3.org/1999/xlink">
    <defs></defs>
    <g id="Page-3" stroke="none" stroke-width="1" fill="none" fill-rule="evenodd">
        <g id="G20_-_Digital_Society_Platform" transform="translate(-633.000000, -563.000000)" fill="#873299">
            <g id="Group-830" transform="translate(631.000000, 296.000000)">
                <path d="M7.8924,282.7549 C7.8924,282.4629 7.7944,282.2106 7.5985,281.9982 C7.4027,281.7858 7.1626,281.6829 6.8783,281.6895 C6.5939,281.6962 6.357,281.799 6.1674,281.9982 C5.9779,282.1973 5.8768,282.4496 5.8641,282.7549 C5.8515,283.0603 5.9526,283.3092 6.1674,283.5017 C6.3823,283.6942 6.6192,283.8005 6.8783,283.8204 C7.1373,283.8403 7.3774,283.7341 7.5985,283.5017 C7.8197,283.2694 7.9176,283.0205 7.8924,282.7549 M10.5366,280.6141 C10.5366,280.6141 10.5366,271.2344 10.5366,271.2344 C10.5366,271.1149 10.4955,271.012 10.4134,270.9257 C10.3313,270.8394 10.2365,270.7996 10.1291,270.8062 C10.1291,270.8062 3.6274,270.8062 3.6274,270.8062 C3.52,270.8062 3.4252,270.846 3.3431,270.9257 C3.261,271.0054 3.2231,271.1083 3.2294,271.2344 C3.2294,271.2344 3.2294,280.6141 3.2294,280.6141 C3.2294,280.7336 3.2673,280.8365 3.3431,280.9228 C3.4189,281.0091 3.5137,281.0489 3.6274,281.0423 C3.6274,281.0423 10.1291,281.0423 10.1291,281.0423 C10.2428,281.0423 10.3376,281.0025 10.4134,280.9228 C10.4892,280.8431 10.5303,280.7403 10.5366,280.6141 M8.1009,269.3126 C8.1009,269.1666 8.0314,269.0936 7.8924,269.0936 C7.8924,269.0936 5.8641,269.0936 5.8641,269.0936 C5.7315,269.0936 5.6651,269.1666 5.6651,269.3126 C5.6651,269.4587 5.7315,269.5284 5.8641,269.5217 C5.8641,269.5217 7.8924,269.5217 7.8924,269.5217 C8.0314,269.5217 8.1009,269.452 8.1009,269.3126 M11.7592,269.0936 C11.7592,269.0936 11.7592,282.7549 11.7592,282.7549 C11.7592,283.213 11.5981,283.6113 11.2759,283.9498 C10.9536,284.2884 10.5714,284.4576 10.1291,284.4576 C10.1291,284.4576 3.6274,284.4576 3.6274,284.4576 C3.1915,284.4576 2.8124,284.2884 2.4901,283.9498 C2.1679,283.6113 2.0068,283.213 2.0068,282.7549 C2.0068,282.7549 2.0068,269.0936 2.0068,269.0936 C2.0068,268.6355 2.1679,268.2372 2.4901,267.8987 C2.8124,267.5601 3.1915,267.3909 3.6274,267.3909 C3.6274,267.3909 10.1291,267.3909 10.1291,267.3909 C10.5714,267.3909 10.9536,267.5601 11.2759,267.8987 C11.5981,268.2372 11.7592,268.6355 11.7592,269.0936" id="Fill-824"></path>
            </g>
        </g>
    </g>
</svg>
