<svg width="14px" height="11px" viewBox="0 0 14 11" version="1.1" xmlns="http://www.w3.org/2000/svg" xmlns:xlink="http://www.w3.org/1999/xlink">
    <defs></defs>
    <g id="Page-3" stroke="none" stroke-width="1" fill="none" fill-rule="evenodd">
        <g id="G20_-_Digital_Society_Platform" transform="translate(-631.000000, -629.000000)" fill="#873299">
            <g id="Group-830" transform="translate(631.000000, 296.000000)">
                <path d="M12.1358,333.6325 C12.1358,333.6325 1.9333,333.6325 1.9333,333.6325 C1.2319,333.6325 0.6643,334.1961 0.6643,334.885 C0.6643,334.885 0.658,342.4003 0.658,342.4003 C0.658,343.0892 1.2319,343.6528 1.9333,343.6528 C1.9333,343.6528 12.1358,343.6528 12.1358,343.6528 C12.8373,343.6528 13.4111,343.0892 13.4111,342.4003 C13.4111,342.4003 13.4111,334.885 13.4111,334.885 C13.4111,334.1961 12.8373,333.6325 12.1358,333.6325 M12.1358,336.1375 C12.1358,336.1375 7.0346,339.2689 7.0346,339.2689 C7.0346,339.2689 1.9333,336.1375 1.9333,336.1375 C1.9333,336.1375 1.9333,334.885 1.9333,334.885 C1.9333,334.885 7.0346,338.0164 7.0346,338.0164 C7.0346,338.0164 12.1358,334.885 12.1358,334.885 C12.1358,334.885 12.1358,336.1375 12.1358,336.1375" id="icon-email"></path>
            </g>
        </g>
    </g>
</svg>
